<mxfile host="app.diagrams.net" modified="2024-02-18T09:20:44.027Z" agent="Mozilla/5.0 (Windows NT 10.0; Win64; x64) AppleWebKit/537.36 (KHTML, like Gecko) Chrome/121.0.0.0 Safari/537.36" etag="N16qmiCEFYD6FEKGco-p" version="23.1.5" type="github">
  <diagram name="Page-1" id="2a216829-ef6e-dabb-86c1-c78162f3ba2b">
    <mxGraphModel dx="2074" dy="1116" grid="1" gridSize="10" guides="1" tooltips="1" connect="1" arrows="1" fold="1" page="1" pageScale="1" pageWidth="850" pageHeight="1100" background="none" math="0" shadow="0">
      <root>
        <mxCell id="0" />
        <mxCell id="1" parent="0" />
        <mxCell id="7a84cebc1def654-2" value="Посудомойка&lt;div&gt;&lt;br/&gt;&lt;/div&gt;" style="shape=ext;rounded=1;html=1;whiteSpace=wrap;" parent="1" vertex="1">
          <mxGeometry x="980" y="100" width="120" height="80" as="geometry" />
        </mxCell>
        <mxCell id="7a84cebc1def654-3" value="Повар" style="shape=ext;rounded=1;html=1;whiteSpace=wrap;" parent="1" vertex="1">
          <mxGeometry x="780" y="440" width="120" height="80" as="geometry" />
        </mxCell>
        <mxCell id="s008tfl32knx6fPp6dvy-4" style="edgeStyle=orthogonalEdgeStyle;rounded=0;orthogonalLoop=1;jettySize=auto;html=1;exitX=0.25;exitY=1;exitDx=0;exitDy=0;" parent="1" source="7a84cebc1def654-12" target="7a84cebc1def654-14" edge="1">
          <mxGeometry relative="1" as="geometry" />
        </mxCell>
        <mxCell id="7a84cebc1def654-12" value="Администратор&lt;br&gt;" style="html=1;whiteSpace=wrap;rounded=1;" parent="1" vertex="1">
          <mxGeometry x="1340" y="250" width="120" height="80" as="geometry" />
        </mxCell>
        <mxCell id="s008tfl32knx6fPp6dvy-6" style="edgeStyle=orthogonalEdgeStyle;rounded=0;orthogonalLoop=1;jettySize=auto;html=1;entryX=1;entryY=0.5;entryDx=0;entryDy=0;" parent="1" source="7a84cebc1def654-14" target="7a84cebc1def654-3" edge="1">
          <mxGeometry relative="1" as="geometry" />
        </mxCell>
        <mxCell id="7a84cebc1def654-14" value="Официант" style="html=1;whiteSpace=wrap;rounded=1;" parent="1" vertex="1">
          <mxGeometry x="1000" y="440" width="120" height="80" as="geometry" />
        </mxCell>
        <mxCell id="7a84cebc1def654-39" style="edgeStyle=orthogonalEdgeStyle;rounded=0;html=1;jettySize=auto;orthogonalLoop=1;" parent="1" source="7a84cebc1def654-2" target="7a84cebc1def654-3" edge="1">
          <mxGeometry relative="1" as="geometry" />
        </mxCell>
        <mxCell id="7a84cebc1def654-40" style="edgeStyle=orthogonalEdgeStyle;rounded=0;html=1;jettySize=auto;orthogonalLoop=1;" parent="1" source="7a84cebc1def654-14" target="7a84cebc1def654-12" edge="1">
          <mxGeometry relative="1" as="geometry" />
        </mxCell>
        <mxCell id="s008tfl32knx6fPp6dvy-2" value="" style="shape=flexArrow;endArrow=classic;startArrow=classic;html=1;rounded=0;exitX=1;exitY=0.5;exitDx=0;exitDy=0;" parent="1" source="7a84cebc1def654-2" target="7a84cebc1def654-12" edge="1">
          <mxGeometry width="100" height="100" relative="1" as="geometry">
            <mxPoint x="1230" y="160" as="sourcePoint" />
            <mxPoint x="1330" y="60" as="targetPoint" />
            <Array as="points">
              <mxPoint x="1290" y="140" />
            </Array>
          </mxGeometry>
        </mxCell>
        <mxCell id="s008tfl32knx6fPp6dvy-3" style="edgeStyle=orthogonalEdgeStyle;rounded=0;orthogonalLoop=1;jettySize=auto;html=1;entryX=0.325;entryY=-0.025;entryDx=0;entryDy=0;entryPerimeter=0;" parent="1" source="7a84cebc1def654-2" target="7a84cebc1def654-14" edge="1">
          <mxGeometry relative="1" as="geometry">
            <mxPoint x="1040" y="420" as="targetPoint" />
          </mxGeometry>
        </mxCell>
        <mxCell id="s008tfl32knx6fPp6dvy-10" style="edgeStyle=orthogonalEdgeStyle;rounded=0;orthogonalLoop=1;jettySize=auto;html=1;entryX=0.908;entryY=-0.012;entryDx=0;entryDy=0;entryPerimeter=0;" parent="1" source="7a84cebc1def654-12" target="7a84cebc1def654-3" edge="1">
          <mxGeometry relative="1" as="geometry" />
        </mxCell>
      </root>
    </mxGraphModel>
  </diagram>
</mxfile>
